# xmcd
#
# Track frame offsets: 
#        150
#        11225
#        22570
#        34097
#        48817
#        68465
#        84415
#        96045
#        107672
#        126607
#        141587
#        151955
#        163572
#        171870
#        184670
#        195737
#        206882
#        221135
#
# Disc length: 3085 seconds
#
# Revision: 3
# Processed by: cddbd v1.5PL3 Copyright (c) Steve Scherf et al.
# Submitted via: ExactAudioCopy v0.90b4
#
DISCID=f60c0b12
DTITLE=Marty Robbins - His Greatest Hits And Finest Performances - Dis
DTITLE=c 1
DYEAR=1900
DGENRE=Country
TTITLE0=Singing The Blues
TTITLE1=A White Sport Coat (And A Pink Carnation)
TTITLE2=The Story Of My Life
TTITLE3=Don't Worry
TTITLE4=El Paso
TTITLE5=My Woman, My Woman, My Wife
TTITLE6=Ribbon Of Darkness
TTITLE7=Among My Souvenirs
TTITLE8=El Paso City
TTITLE9=I Walk Alone
TTITLE10=The Hawaiian Wedding Song
TTITLE11=Lovely Hula Hands
TTITLE12=Sweet Leilani
TTITLE13=My Wonderful One
TTITLE14=Aloha Oe (Farewell To Thee)
TTITLE15=Kaw-Liga
TTITLE16=Have I Told You Lately That I Love You
TTITLE17=Bouquet Of Roses
EXTD=
EXTT0=
EXTT1=
EXTT2=
EXTT3=
EXTT4=
EXTT5=
EXTT6=
EXTT7=
EXTT8=
EXTT9=
EXTT10=
EXTT11=
EXTT12=
EXTT13=
EXTT14=
EXTT15=
EXTT16=
EXTT17=
PLAYORDER=
